HIERARCHY
ROOT SpineBase
{
  OFFSET 0.000000 0.000000 0.000000
  CHANNELS 6 Xposition Yposition Zposition Zrotation Xrotation Yrotation
  JOINT SpineMid
  {
    OFFSET 0.000000 30.033542 0.000000
    CHANNELS 3 Zrotation Xrotation Yrotation
    JOINT SpineShoulder
    {
      OFFSET 0.060104 22.376495 -0.713220
      CHANNELS 3 Zrotation Xrotation Yrotation
      JOINT Neck
      {
        OFFSET 0.035546 7.432199 -0.547792
        CHANNELS 3 Zrotation Xrotation Yrotation
        JOINT Head
        {
          OFFSET 2.270739 14.496844 -2.071793
          CHANNELS 3 Zrotation Xrotation Yrotation
          End Site
          {
            OFFSET 0 0 0
          }
        }
      }
      JOINT ShoulderLeft
      {
        OFFSET -15.581928 -1.728837 -5.767068
        CHANNELS 3 Zrotation Xrotation Yrotation
        JOINT ElbowLeft
        {
          OFFSET -6.873071 -22.144170 -3.420533
          CHANNELS 3 Zrotation Xrotation Yrotation
          JOINT WristLeft
          {
            OFFSET -0.628240 -19.931561 -6.860493
            CHANNELS 3 Zrotation Xrotation Yrotation
            JOINT HandLeft
            {
              OFFSET 0.231763 -6.811419 -0.431037
              CHANNELS 3 Zrotation Xrotation Yrotation
              JOINT HandTipLeft
              {
                OFFSET 0.952318 -6.374387 -0.415989
                CHANNELS 3 Zrotation Xrotation Yrotation
                End Site
                {
                  OFFSET 0 0 0
                }
              }
              JOINT ThumbLeft
              {
                OFFSET 2.856452 0.314645 -0.977333
                CHANNELS 3 Zrotation Xrotation Yrotation
                End Site
                {
                  OFFSET 0 0 0
                }
              }
            }
          }
        }
      }
      JOINT ShoulderRight
      {
        OFFSET 15.978441 -4.090410 3.919363
        CHANNELS 3 Zrotation Xrotation Yrotation
        JOINT ElbowRight
        {
          OFFSET 2.030183 -24.759047 2.312079
          CHANNELS 3 Zrotation Xrotation Yrotation
          JOINT WristRight
          {
            OFFSET -0.164182 -20.814612 -8.535707
            CHANNELS 3 Zrotation Xrotation Yrotation
            JOINT HandRight
            {
              OFFSET -1.113544 -3.676174 -1.279184
              CHANNELS 3 Zrotation Xrotation Yrotation
              JOINT HandTipRight
              {
                OFFSET 0.675772 -5.992697 -1.364657
                CHANNELS 3 Zrotation Xrotation Yrotation
                End Site
                {
                  OFFSET 0 0 0
                }
              }
              JOINT ThumbRight
              {
                OFFSET -3.997604 -1.149014 -1.818788
                CHANNELS 3 Zrotation Xrotation Yrotation
                End Site
                {
                  OFFSET 0 0 0
                }
              }
            }
          }
        }
      }
    }
  }
  JOINT HipLeft
  {
    OFFSET -6.758465 1.630202 -4.850433
    CHANNELS 3 Zrotation Xrotation Yrotation
    JOINT KneeLeft
    {
      OFFSET -5.657852 -26.248096 -0.370047
      CHANNELS 3 Zrotation Xrotation Yrotation
      JOINT AnkleLeft
      {
        OFFSET -7.751641 -35.469216 9.725560
        CHANNELS 3 Zrotation Xrotation Yrotation
        JOINT FootLeft
        {
          OFFSET 1.994538 -2.136184 -9.828440
          CHANNELS 3 Zrotation Xrotation Yrotation
          End Site
          {
            OFFSET 0 0 0
          }
        }
      }
    }
  }
  JOINT HipRight
  {
    OFFSET 6.870264 0.656943 -1.772527
    CHANNELS 3 Zrotation Xrotation Yrotation
    JOINT KneeRight
    {
      OFFSET -1.559520 -28.142299 0.789104
      CHANNELS 3 Zrotation Xrotation Yrotation
      JOINT AnkleRight
      {
        OFFSET -5.663681 -34.343620 4.860466
        CHANNELS 3 Zrotation Xrotation Yrotation
        JOINT FootRight
        {
          OFFSET 0.689923 -6.578903 -5.388159
          CHANNELS 3 Zrotation Xrotation Yrotation
          End Site
          {
            OFFSET 0 0 0
          }
        }
      }
    }
  }
}
MOTION
Frames: 6
Frame Time: 0.033333
-4.956109 69.728869 319.705923 -0.000000 0.000000 -12.726158 0.000000 0.000000 12.726158 -0.000000 0.000000 0.000000 -0.000000 0.000000 0.000000 0.000000 0.000000 0.000000 -0.000000 0.000000 0.000000 -0.000000 0.000000 0.000000 -0.000000 0.000000 0.000000 -0.000000 0.000000 0.000000 0.000000 0.000000 0.000000 0.000000 0.000000 0.000000 -0.000000 0.000000 0.000000 -0.000000 0.000000 0.000000 -0.000000 0.000000 0.000000 -0.000000 0.000000 0.000000 0.000000 0.000000 0.000000 0.000000 0.000000 0.000000 0.000000 0.000000 12.726158 -0.000000 0.000000 0.000000 -0.000000 0.000000 0.000000 0.000000 0.000000 0.000000 0.000000 0.000000 12.726158 -0.000000 0.000000 0.000000 -0.000000 0.000000 0.000000 0.000000 0.000000 0.000000
-4.223071 69.595889 319.908994 -0.607096 0.131198 -12.366768 0.621107 0.001872 12.367453 -0.000000 0.000000 0.000000 -0.000000 0.000000 0.000000 0.000000 0.000000 0.000000 -0.000000 0.000000 0.000000 -0.000000 0.000000 0.000000 1.306667 1.855967 -0.040644 -2.372616 0.075766 0.340136 0.000000 0.000000 0.000000 0.000000 0.000000 0.000000 -0.000000 0.000000 0.000000 -0.000000 0.000000 0.000000 0.929090 0.224887 -0.393940 -3.921999 1.527492 1.303547 0.000000 0.000000 0.000000 0.000000 0.000000 0.000000 0.381778 -0.933907 12.557477 0.437102 0.861343 -0.195256 -0.255016 -1.249262 0.004287 0.000000 0.000000 0.000000 -0.123403 -0.335650 12.352305 0.799482 0.170416 0.011790 2.669882 14.403136 -0.909638 0.000000 0.000000 0.000000
-3.484812 69.473295 320.101570 -1.142319 0.245909 -11.996045 0.050634 -0.005903 11.962951 0.059790 -0.017328 -0.041801 1.912088 0.023252 0.169713 0.000000 0.000000 0.000000 1.991450 -1.215407 0.256379 -0.952564 1.008656 -0.156927 2.528101 3.366105 -0.119426 -4.461151 0.319513 0.597047 0.000000 0.000000 0.000000 0.000000 0.000000 0.000000 1.034523 -0.210854 0.079157 -0.000000 0.000000 0.000000 2.042070 0.246622 -0.793422 -7.766077 2.685737 2.542772 0.000000 0.000000 0.000000 0.000000 0.000000 0.000000 0.609964 -1.451426 12.283339 -0.465439 1.899219 -0.757072 0.890754 -2.726448 0.591395 0.000000 0.000000 0.000000 -0.314050 -0.621312 11.962643 0.742978 0.566672 -0.132557 5.748443 25.236288 -1.904645 0.000000 0.000000 0.000000
-2.741333 69.361089 320.283651 -1.605906 0.344179 -11.614175 0.073313 -0.009923 11.569047 0.084816 -0.024723 -0.058650 2.633732 -0.007722 0.240245 0.000000 0.000000 0.000000 2.832343 -1.670923 0.353076 -1.372357 1.386757 -0.200716 3.688542 4.563228 -0.224350 -6.246639 0.644321 0.789498 0.000000 0.000000 0.000000 0.000000 0.000000 0.000000 2.411505 -0.876815 0.163243 -0.958025 0.587260 -0.036444 3.314127 0.086267 -1.192245 -11.484415 3.472545 3.698199 0.000000 0.000000 0.000000 0.000000 0.000000 0.000000 0.688417 -1.557623 11.907618 -0.673897 2.095651 -0.955117 1.381104 -3.376520 0.985390 0.000000 0.000000 0.000000 -0.571946 -0.855769 11.557879 1.053176 0.698526 -0.185187 7.989991 33.013126 -2.958902 0.000000 0.000000 0.000000
-1.992633 69.259269 320.455237 -1.998061 0.426053 -11.221325 0.094402 -0.014708 11.166638 0.106670 -0.031377 -0.072794 3.198556 -0.068007 0.300532 0.000000 0.000000 0.000000 3.572585 -2.030041 0.426795 -1.758280 1.684671 -0.223878 4.809859 5.470014 -0.346656 -7.718802 0.979851 0.929049 0.000000 0.000000 0.000000 0.000000 0.000000 0.000000 3.000170 -1.092429 0.206407 -1.195065 0.738957 -0.043366 4.723004 -0.237558 -1.583444 -15.042324 3.893463 4.753820 0.000000 0.000000 0.000000 0.000000 0.000000 0.000000 0.622229 -1.250286 11.434413 -0.860051 1.788260 -1.046539 1.896657 -3.509040 1.445047 0.000000 0.000000 0.000000 -0.897043 -1.037608 11.138765 1.322622 0.729906 -0.229774 9.727478 38.241842 -3.772510 0.000000 0.000000 0.000000
-1.238714 69.167836 320.616328 -2.318935 0.491567 -10.817632 0.113992 -0.020289 10.755541 0.125393 -0.037355 -0.084226 3.606302 -0.158090 0.350061 0.000000 0.000000 0.000000 4.213824 -2.295577 0.476240 -2.112641 1.904534 -0.227803 5.912849 6.099055 -0.479609 -8.879066 1.275930 1.023391 0.000000 0.000000 0.000000 0.000000 0.000000 0.000000 3.480924 -1.270086 0.242300 -0.767903 1.333456 -0.318672 5.631993 -1.145590 -1.654279 -18.413484 3.956354 5.696960 0.000000 0.000000 0.000000 0.000000 0.000000 0.000000 0.417874 -0.519913 10.868028 -1.017031 0.968666 -1.038571 2.429030 -3.120015 1.962241 0.000000 0.000000 0.000000 -1.289264 -1.165214 10.706103 1.551315 0.660699 -0.267317 10.939956 41.550690 -4.232949 0.000000 0.000000 0.000000
